<svg xmlns="http://www.w3.org/2000/svg" viewBox="0 0 800 450">
  <defs>
    <linearGradient id="bg9" x1="0%" y1="0%" x2="100%" y2="100%">
      <stop offset="0%" style="stop-color:#0a192f"/>
      <stop offset="100%" style="stop-color:#112240"/>
    </linearGradient>
  </defs>
  <rect width="800" height="450" fill="url(#bg9)"/>
  <!-- Grid of deprecated job blocks -->
  <g opacity="0.3">
    <rect x="80" y="130" width="24" height="24" rx="3" fill="#e74c3c"/>
    <rect x="110" y="130" width="24" height="24" rx="3" fill="#e74c3c"/>
    <rect x="140" y="130" width="24" height="24" rx="3" fill="#e74c3c"/>
    <rect x="170" y="130" width="24" height="24" rx="3" fill="#e74c3c"/>
    <rect x="200" y="130" width="24" height="24" rx="3" fill="#e74c3c"/>
    <rect x="230" y="130" width="24" height="24" rx="3" fill="#e74c3c"/>
    <rect x="260" y="130" width="24" height="24" rx="3" fill="#e74c3c"/>
    <rect x="290" y="130" width="24" height="24" rx="3" fill="#e74c3c"/>
    <rect x="80" y="160" width="24" height="24" rx="3" fill="#e74c3c"/>
    <rect x="110" y="160" width="24" height="24" rx="3" fill="#e74c3c"/>
    <rect x="140" y="160" width="24" height="24" rx="3" fill="#e74c3c"/>
    <rect x="170" y="160" width="24" height="24" rx="3" fill="#e74c3c"/>
    <rect x="200" y="160" width="24" height="24" rx="3" fill="#e74c3c"/>
  </g>
  <!-- Active jobs -->
  <g>
    <rect x="420" y="130" width="24" height="24" rx="3" fill="#2ecc71"/>
    <rect x="450" y="130" width="24" height="24" rx="3" fill="#2ecc71"/>
    <rect x="480" y="130" width="24" height="24" rx="3" fill="#2ecc71"/>
    <rect x="510" y="130" width="24" height="24" rx="3" fill="#2ecc71"/>
    <rect x="540" y="130" width="24" height="24" rx="3" fill="#2ecc71"/>
    <rect x="570" y="130" width="24" height="24" rx="3" fill="#2ecc71"/>
    <rect x="600" y="130" width="24" height="24" rx="3" fill="#2ecc71"/>
    <rect x="420" y="160" width="24" height="24" rx="3" fill="#2ecc71"/>
    <rect x="450" y="160" width="24" height="24" rx="3" fill="#2ecc71"/>
    <rect x="480" y="160" width="24" height="24" rx="3" fill="#2ecc71"/>
    <rect x="510" y="160" width="24" height="24" rx="3" fill="#2ecc71"/>
    <rect x="540" y="160" width="24" height="24" rx="3" fill="#2ecc71"/>
    <rect x="570" y="160" width="24" height="24" rx="3" fill="#2ecc71"/>
  </g>
  <!-- Labels -->
  <text x="190" y="215" text-anchor="middle" fill="#e74c3c" font-size="14" font-family="sans-serif" font-weight="bold">DEPRECATED</text>
  <text x="520" y="215" text-anchor="middle" fill="#2ecc71" font-size="14" font-family="sans-serif" font-weight="bold">ACTIVE</text>
  <!-- Stats bar -->
  <rect x="120" y="260" width="560" height="80" rx="8" fill="#0a192f" stroke="#233554" stroke-width="1"/>
  <text x="230" y="295" text-anchor="middle" fill="#64ffda" font-size="20" font-family="monospace" font-weight="bold">Hundreds</text>
  <text x="230" y="318" text-anchor="middle" fill="#8892b0" font-size="11" font-family="monospace">jobs audited</text>
  <text x="400" y="295" text-anchor="middle" fill="#64ffda" font-size="20" font-family="monospace" font-weight="bold">Multi</text>
  <text x="400" y="318" text-anchor="middle" fill="#8892b0" font-size="11" font-family="monospace">schemas</text>
  <text x="570" y="295" text-anchor="middle" fill="#64ffda" font-size="20" font-family="monospace" font-weight="bold">Significant</text>
  <text x="570" y="318" text-anchor="middle" fill="#8892b0" font-size="11" font-family="monospace">compute reclaimed</text>
  <!-- Catalog -->
  <rect x="200" y="360" width="400" height="40" rx="6" fill="#112240" stroke="#64ffda" stroke-width="1"/>
  <text x="400" y="385" text-anchor="middle" fill="#64ffda" font-size="13" font-family="monospace">Centralized Metadata Catalog</text>
  <text x="400" y="55" text-anchor="middle" fill="#ffffff" font-size="22" font-family="sans-serif" font-weight="bold">Infrastructure Audit</text>
  <text x="400" y="85" text-anchor="middle" fill="#64ffda" font-size="14" font-family="monospace">Job Optimization · Usage Analysis · Migration Planning</text>
</svg>